<?xml version="1.0" encoding="utf-8"?>
<!-- Generator: Adobe Illustrator 16.0.0, SVG Export Plug-In . SVG Version: 6.00 Build 0)  -->
<!DOCTYPE svg PUBLIC "-//W3C//DTD SVG 1.1//EN" "http://www.w3.org/Graphics/SVG/1.1/DTD/svg11.dtd">
<svg version="1.1" id="Ebene_1" xmlns="http://www.w3.org/2000/svg" xmlns:xlink="http://www.w3.org/1999/xlink" x="0px" y="0px"
	 width="205.5px" height="212.667px" viewBox="0 0 205.5 212.667" enable-background="new 0 0 205.5 212.667" xml:space="preserve">
<g>
	<g>
		<g>
			<path fill="#8BC530" d="M37.542,201.086c-3.309,0-6.543-0.646-9.612-1.918c-9.401-3.891-15.479-12.985-15.479-23.167V56.355
				c0-24.745,20.13-44.876,44.873-44.876h92.404c24.745,0,44.877,20.131,44.877,44.876v66c0,24.746-20.132,44.878-44.877,44.878
				H81.758l-26.502,26.504C50.514,198.477,44.224,201.086,37.542,201.086z"/>
			<path fill="#FFFFFF" d="M149.728,21.979c18.957,0,34.377,15.421,34.377,34.376v66c0,18.955-15.42,34.378-34.377,34.378H77.409
				l-29.578,29.579c-2.795,2.794-6.505,4.273-10.289,4.273c-1.88,0-3.779-0.365-5.592-1.117c-5.467-2.263-9-7.548-9-13.468V56.355
				c0-18.955,15.42-34.376,34.373-34.376H149.728 M149.728,0.979H57.323C26.791,0.979,1.95,25.821,1.95,56.355v119.646
				c0,14.444,8.623,27.348,21.969,32.871c4.34,1.8,8.927,2.714,13.623,2.714c9.485,0,18.412-3.701,25.135-10.421l23.431-23.432
				h63.62c30.535,0,55.377-24.843,55.377-55.378v-66C205.104,25.821,180.263,0.979,149.728,0.979L149.728,0.979z"/>
		</g>
	</g>
	<g>
		<path fill="#FFFFFF" d="M57.849,36.146c-11.217,0-20.344,9.131-20.344,20.349V177.46l34.617-34.617h78.131
			c11.217,0,20.344-9.128,20.344-20.348v-66c0-11.218-9.127-20.349-20.344-20.349H57.849z"/>
	</g>
	<g>
		<g>
			<path fill="#703E91" d="M148.913,110.652c0-2.808,2.285-5.097,5.096-5.097c2.809,0,5.098,2.289,5.098,5.097
				c0,2.811-2.289,5.099-5.098,5.099C151.198,115.751,148.913,113.463,148.913,110.652z M149.304,72.104
				c0-2.743,2.027-4.442,4.705-4.442c2.615,0,4.705,1.765,4.705,4.442v25.154c0,2.681-2.09,4.444-4.705,4.444
				c-2.678,0-4.705-1.7-4.705-4.444V72.104z"/>
		</g>
		<path fill="#703E91" d="M143.21,108.352L132.718,95.81l9.156-9.155c1.996-1.998,2.078-4.574,0.334-6.322
			c-1.748-1.746-4.326-1.661-6.322,0.336l-11.293,11.293V69.886c0-3.137-1.961-5.229-4.705-5.229s-4.705,2.093-4.705,5.229v40.246
			c0,3.136,1.961,5.226,4.705,5.226s4.705-2.09,4.705-5.226v-10.84l12.121,14.493c1.813,2.162,4.375,2.477,6.27,0.893
			C144.876,113.093,145.021,110.516,143.21,108.352z"/>
	</g>
	<path fill="#703E91" d="M110.313,86.314c0-4.642-7.123-6.796-11.762-6.796c-7.447,0-12.742,4.44-12.742,10.974
		c0,10.78,16.457,10.494,16.336,14.438c-0.047,1.572-0.551,2.844-3.725,2.764c-4.441-0.112-6.076-3.284-9.736-3.284
		c-2.611,0-4.051,2.744-4.051,4.181c0,4.248,7.84,7.254,13.133,7.254c8.102,0,13.393-4.771,13.393-11.041
		c0-10.717-16.299-10.102-16.334-14.439c-0.014-1.83,1.037-2.787,3.203-2.695c3.07,0.129,6.668,2.824,8.43,2.824
		C108.679,90.492,110.313,88.469,110.313,86.314z"/>
	<path fill="#703E91" d="M77.085,79.613c-2.184,0-3.91,1.174-4.484,3.074c-2.744-1.762-6.006-2.824-9.502-2.824
		c-9.717,0-17.625,7.904-17.625,17.627c0,9.715,7.908,17.621,17.625,17.621c3.502,0,6.766-1.064,9.512-2.831
		c0.02,0.047,0.043,0.118,0.063,0.165c0.295,0.806,0.807,1.453,1.479,1.926c0.059,0.045,0.117,0.093,0.18,0.134
		c0.068,0.041,0.137,0.083,0.207,0.12c0.684,0.402,1.48,0.633,2.369,0.633c0.039,0,0.076-0.011,0.117-0.011
		c0.02,0,0.039,0.005,0.061,0.005c2.613,0,4.703-1.761,4.703-4.441V84.056C81.788,81.377,79.698,79.613,77.085,79.613z
		 M63.558,106.364c-4.943,0-8.953-4.011-8.953-8.956c0-4.947,4.01-8.954,8.953-8.954c4.947,0,8.955,4.007,8.955,8.954
		C72.513,102.354,68.505,106.364,63.558,106.364z"/>
</g>
</svg>
